<?xml version="1.0" encoding="UTF-8"?>
<svg width="452px" height="512px" viewBox="0 0 452 512" version="1.1" xmlns="http://www.w3.org/2000/svg" xmlns:xlink="http://www.w3.org/1999/xlink">
    <!-- Generator: Sketch 48.2 (47327) - http://www.bohemiancoding.com/sketch -->
    <title>Shape</title>
    <desc>Created with Sketch.</desc>
    <defs></defs>
    <g id="Page-1" stroke="none" stroke-width="1" fill="none" fill-rule="evenodd">
        <g id="html5_image" fill="#BBBBBB" fill-rule="nonzero">
            <path d="M0.269,0 L41.341,460.815 L225.719,512 L410.58,460.738 L451.731,0 L0.269,0 Z M375.381,431.412 L226.768,472.6 L226.768,472.833 L226.38,472.716 L225.989,472.833 L225.989,472.6 L77.378,431.412 L42.257,37.669 L410.506,37.669 L375.381,431.412 Z M295.377,265.102 L288.842,338.378 L225.874,355.374 L225.737,355.413 L162.806,338.455 L158.781,293.338 L102.036,293.338 L109.951,382.094 L225.737,414.221 L225.797,414.221 L225.874,414.221 L225.989,414.182 L341.66,382.094 L357.181,208.588 L151.197,208.588 L146.046,150.714 L362.117,150.714 L362.312,150.714 L367.369,94.201 L84.26,94.201 L99.509,265.101 L295.377,265.101 L295.377,265.102 Z" id="Shape"></path>
        </g>
    </g>
</svg>